<svg width="89" height="16" viewBox="0 0 89 16" fill="none" xmlns="http://www.w3.org/2000/svg">
<g clip-path="url(#clip0_6842_5061)">
<path d="M7.45192 1.65912C7.76953 1.04304 8.68198 1.05077 8.9969 1.65912L10.7545 5.07215L14.6869 5.62121C15.3921 5.71917 15.6747 6.55179 15.1633 7.02869L12.3183 9.68383L12.9912 13.4345C13.1123 14.1125 12.3668 14.6178 11.7423 14.3033L8.22441 12.5323L4.70651 14.3033C4.08205 14.6203 3.3365 14.1125 3.45763 13.4345L4.13052 9.68383L1.28551 7.02869C0.774109 6.55179 1.05673 5.71917 1.76193 5.62121L5.69432 5.07215L7.45192 1.65912Z" fill="#F9B950"/>
<path d="M25.4519 1.65912C25.7695 1.04304 26.682 1.05077 26.9969 1.65912L28.7545 5.07215L32.6869 5.62121C33.3921 5.71917 33.6747 6.55179 33.1633 7.02869L30.3183 9.68383L30.9912 13.4345C31.1123 14.1125 30.3668 14.6178 29.7423 14.3033L26.2244 12.5323L22.7065 14.3033C22.0821 14.6203 21.3365 14.1125 21.4576 13.4345L22.1305 9.68383L19.2855 7.02869C18.7741 6.55179 19.0567 5.71917 19.7619 5.62121L23.6943 5.07215L25.4519 1.65912Z" fill="#F9B950"/>
<path d="M43.4519 1.65912C43.7695 1.04304 44.682 1.05077 44.9969 1.65912L46.7545 5.07215L50.6869 5.62121C51.3921 5.71917 51.6747 6.55179 51.1633 7.02869L48.3183 9.68383L48.9912 13.4345C49.1123 14.1125 48.3668 14.6178 47.7423 14.3033L44.2244 12.5323L40.7065 14.3033C40.0821 14.6203 39.3365 14.1125 39.4576 13.4345L40.1305 9.68383L37.2855 7.02869C36.7741 6.55179 37.0567 5.71917 37.7619 5.62121L41.6943 5.07215L43.4519 1.65912Z" fill="#F9B950"/>
<path d="M61.4519 1.65912C61.7695 1.04304 62.682 1.05077 62.9969 1.65912L64.7545 5.07215L68.6869 5.62121C69.3921 5.71917 69.6747 6.55179 69.1633 7.02869L66.3183 9.68383L66.9912 13.4345C67.1123 14.1125 66.3668 14.6178 65.7423 14.3033L62.2244 12.5323L58.7065 14.3033C58.0821 14.6203 57.3365 14.1125 57.4576 13.4345L58.1305 9.68383L55.2855 7.02869C54.7741 6.55179 55.0567 5.71917 55.7619 5.62121L59.6943 5.07215L61.4519 1.65912Z" fill="#F9B950"/>
<path d="M79.4519 1.65912C79.7695 1.04304 80.682 1.05077 80.9969 1.65912L82.7545 5.07215L86.6869 5.62121C87.3921 5.71917 87.6747 6.55179 87.1633 7.02869L84.3183 9.68383L84.9912 13.4345C85.1123 14.1125 84.3668 14.6178 83.7423 14.3033L80.2244 12.5323L76.7065 14.3033C76.0821 14.6203 75.3365 14.1125 75.4576 13.4345L76.1305 9.68383L73.2855 7.02869C72.7741 6.55179 73.0567 5.71917 73.7619 5.62121L77.6943 5.07215L79.4519 1.65912Z" fill="#F1F1F1"/>
</g>
<defs>
<clipPath id="clip0_6842_5061">
<rect width="88" height="16" fill="white" transform="translate(0.224609)"/>
</clipPath>
</defs>
</svg>
